<svg version="1.1" id="Layer_1" xmlns="http://www.w3.org/2000/svg" xmlns:xlink="http://www.w3.org/1999/xlink" x="0px" y="0px"
	 width="100%" viewBox="0 0 740 948" enable-background="new 0 0 740 948" xml:space="preserve">
<path fill="none" opacity="1.000000" stroke="currentColor" stroke-linecap="round" stroke-linejoin="round" stroke-width="5.000000"
	d="
M523.000000,323.000000 
	C523.765808,316.954681 527.946411,312.804352 531.572998,308.562408 
	C543.398132,294.730774 557.617676,283.554169 571.922180,272.400208 
	C588.510132,259.465790 605.223511,246.603043 617.579285,229.055817 
	C626.348755,216.601700 631.207764,203.018890 633.693237,188.032043 
	C636.572388,170.671783 635.441589,153.801682 630.973755,137.006989 
	C625.969116,118.194176 616.927734,101.495697 604.541504,86.465797 
	C589.443115,68.144852 570.150452,55.466812 549.500549,44.498932 
	C526.665222,32.370277 502.505005,23.482141 477.983063,15.552370 
	C463.085236,10.734791 447.973846,6.364365 432.478607,4.149740 
	C413.683716,1.463532 395.899811,4.295753 380.991425,17.490295 
	C373.117737,24.458809 368.031616,32.724487 366.875366,43.486607 
	C366.115570,50.558224 367.146667,56.694599 372.000000,62.000000 
"/>
<path fill="none" opacity="1.000000" stroke="currentColor" stroke-linecap="round" stroke-linejoin="round" stroke-width="5.000000"
	d="
M348.500000,318.500000 
	C348.902771,320.097229 350.116180,320.871887 351.498444,321.503418 
	C365.645782,327.967316 371.970734,339.652069 374.061890,354.491272 
	C376.110962,369.031342 378.694916,383.495575 380.971954,398.004395 
	C381.346924,400.393463 381.440430,402.819092 378.508514,404.020752 
	C375.779602,405.139221 374.861603,408.025482 373.025055,410.023041 
	C355.785553,428.773712 341.691223,449.793518 328.407440,471.443207 
	C323.923401,478.751190 322.562256,487.028870 319.623077,494.796570 
	C314.673798,507.876556 310.189117,521.154053 306.064728,534.519958 
	C297.512024,562.236816 288.752655,589.889343 281.373444,617.966736 
	C277.690308,631.981018 273.533875,645.875244 270.250671,660.000183 
	C266.589996,675.749146 263.106140,691.531921 260.470886,707.495178 
	C259.310547,714.523743 259.034851,722.032471 256.223053,728.377258 
	C251.822113,738.308105 251.927246,748.781555 249.991119,758.998291 
	C248.031464,769.339294 246.215012,779.713928 243.957886,789.990723 
	C238.214401,816.141174 233.027695,842.407349 227.131699,868.529724 
	C221.520203,893.391724 216.989731,918.497986 212.022232,943.504395 
	C211.678421,945.235168 210.009521,946.536194 210.500000,948.500000 
"/>
<path fill="none" opacity="1.000000" stroke="currentColor" stroke-linecap="round" stroke-linejoin="round" stroke-width="6.000000"
	d="
M527.500000,379.000000 
	C522.248169,376.013306 521.876648,370.244720 520.683777,365.454254 
	C517.712585,353.522247 516.641602,341.312073 518.484375,328.997650 
	C519.311523,323.470520 521.257751,322.291412 526.496399,324.508514 
	C535.907776,328.491730 543.013916,335.338684 549.516479,342.985962 
	C558.734924,353.827118 566.412415,365.739990 572.335388,378.575958 
	C577.021362,388.731476 584.842102,395.714264 593.065491,402.419708 
	C600.608582,408.570465 607.072937,415.760925 613.973816,422.526703 
	C634.719055,442.865662 653.262207,465.044861 668.981567,489.511841 
	C678.530396,504.374390 687.495911,519.707397 692.741882,536.580261 
	C696.318359,548.083313 701.639587,558.972778 703.910645,570.969604 
	C706.082764,582.443848 710.014893,593.576599 712.403320,605.020203 
	C716.423096,624.279785 719.694946,643.694275 723.541809,662.991638 
	C726.877991,679.727173 728.732727,696.682617 731.399658,713.515869 
	C732.652405,721.423035 732.458496,729.553040 733.580811,737.488586 
	C735.694397,752.433899 735.676147,767.540649 737.430176,782.508179 
	C737.892639,786.453979 737.485901,790.500061 737.504456,794.500000 
	C737.519348,797.721313 737.018555,801.027832 739.960693,803.545959 
	C741.084045,804.507385 740.474304,806.162415 740.481384,807.500122 
	C740.520325,814.833191 740.544800,822.167114 740.478455,829.499817 
	C740.450989,832.533142 741.291626,835.708069 738.113892,838.148254 
	C737.203918,838.847168 737.448853,841.344727 737.535706,842.998108 
	C738.056641,852.920654 736.725952,862.762268 735.321167,872.474121 
	C733.300781,886.441650 730.075806,900.228516 725.024475,913.509277 
	C721.810425,921.959595 718.866455,930.512268 715.722595,938.989868 
	C715.078491,940.726685 714.083374,942.333374 713.250061,944.000000 
"/>
<path fill="none" opacity="1.000000" stroke="currentColor" stroke-linecap="round" stroke-linejoin="round" stroke-width="4.000000"
	d="
M642.500000,540.500000 
	C642.202881,563.560059 641.279663,586.609802 638.391602,609.486328 
	C635.581482,631.746094 632.232239,653.943970 628.042114,676.007996 
	C623.459473,700.138428 618.352478,724.143433 612.533325,748.008118 
	C603.039307,786.943542 591.962097,825.419128 579.480164,863.493530 
	C575.560547,875.449829 571.175293,887.236267 565.503967,898.502014 
	C564.249817,900.993225 563.223572,903.646362 560.500000,905.000000 
"/>
<path fill="none" opacity="1.000000" stroke="currentColor" stroke-linecap="round" stroke-linejoin="round" stroke-width="6.000000"
	d="
M533.500000,350.500000 
	C536.647461,359.018433 533.199158,366.894379 530.309814,374.427063 
	C527.172241,382.606873 524.430359,391.110199 519.468140,398.478577 
	C510.758453,411.411621 503.811920,425.375763 495.019348,438.351898 
	C487.342957,449.680817 480.047272,461.492096 472.378235,472.918274 
	C457.612396,494.918182 442.548157,516.713562 429.013489,539.507996 
	C415.757782,561.832703 404.238922,585.029785 394.226776,608.990295 
	C385.482025,629.917725 377.904022,651.230225 371.408295,672.972595 
	C365.747131,691.921448 360.981049,711.056946 357.559021,730.510376 
	C354.929535,745.458313 352.657532,760.475708 350.578278,775.510803 
	C349.619019,782.447327 349.114380,789.497681 349.072021,796.500427 
	C348.942902,817.845886 346.187256,839.146484 347.595032,860.493713 
	C348.419830,873.000427 349.029755,885.523804 350.288208,898.021301 
	C351.295013,908.019958 352.274933,918.023926 353.522186,927.997253 
	C354.232788,933.679260 355.166687,939.333313 356.000000,945.000000 
"/>
<path fill="none" opacity="1.000000" stroke="currentColor" stroke-linecap="round" stroke-linejoin="round" stroke-width="5.000000"
	d="
M274.500000,410.000000 
	C260.430725,436.394989 252.465866,464.781860 246.983154,493.996826 
	C243.459671,512.771912 240.106857,531.567383 237.433670,550.490601 
	C235.613846,563.372925 233.486176,576.231262 230.908386,588.981506 
	C228.427246,601.253784 227.520569,613.767029 224.911057,625.981018 
	C222.423813,637.622559 220.359909,649.351501 218.190613,661.035400 
	C213.962936,683.805603 209.128494,706.422729 204.114563,729.025391 
	C200.191177,746.712036 196.060150,764.352844 192.191467,782.041870 
	C187.231873,804.718933 182.045410,827.345032 176.912567,849.980164 
	C172.978897,867.327087 169.369827,884.745972 165.236511,902.056458 
	C161.916824,915.959351 158.810318,929.958923 155.934097,943.986511 
	C155.620453,945.516113 155.406723,946.971130 155.500000,948.500000 
"/>
<path fill="none" opacity="1.000000" stroke="currentColor" stroke-linecap="round" stroke-linejoin="round" stroke-width="5.000000"
	d="
M286.500000,114.500000 
	C284.442657,113.959686 284.445374,111.865501 283.519928,110.486618 
	C280.092712,105.380058 276.490082,104.386894 270.992737,106.984604 
	C266.200592,109.249069 262.415619,112.551636 259.477295,116.984947 
	C250.280777,130.860580 238.799683,143.176010 231.045349,158.023682 
	C224.911102,169.769302 218.623917,181.478897 216.901535,194.987442 
	C216.450363,198.526093 218.115036,203.452026 216.208328,205.177750 
	C212.951569,208.125381 211.220810,211.879288 208.557571,215.048386 
	C205.798920,218.331009 203.610168,222.085205 200.980652,225.485031 
	C190.484161,239.056458 178.147949,250.969620 166.481964,263.483185 
	C147.023605,284.355225 127.263062,304.941223 107.920197,325.926453 
	C91.889099,343.318665 76.292633,361.049957 61.467903,379.474182 
	C59.246296,382.235199 57.031841,383.453094 52.502975,383.481110 
	C42.473644,383.543182 32.057327,386.127350 24.286394,392.831940 
	C20.967525,395.695404 17.335365,400.249542 16.564428,405.509430 
	C16.347933,406.986542 16.064552,407.731232 14.500000,407.500000 
"/>
<path fill="none" opacity="1.000000" stroke="currentColor" stroke-linecap="round" stroke-linejoin="round" stroke-width="4.000000"
	d="
M321.000000,473.500000 
	C301.642029,481.527924 282.460144,489.991852 262.514252,496.543427 
	C256.439545,498.538757 253.050308,502.653473 252.919830,509.498474 
	C252.738647,519.004578 251.636124,528.497437 251.568878,538.000488 
	C251.374252,565.499084 251.140610,593.006226 251.615662,620.497986 
	C251.984360,641.835205 252.202393,663.172791 251.863892,684.497864 
	C251.644379,698.326660 252.071548,712.199036 250.582489,726.008911 
	C250.315628,728.483704 249.561310,731.387756 252.000000,733.500000 
"/>
<path fill="none" opacity="1.000000" stroke="currentColor" stroke-linecap="round" stroke-linejoin="round" stroke-width="5.000000"
	d="
M586.000000,609.500000 
	C582.000000,624.000000 578.216980,638.564209 573.948853,652.984863 
	C567.634155,674.320496 561.839844,695.784363 557.022278,717.504944 
	C554.452271,729.092163 552.870361,740.953247 550.055969,752.390747 
	C547.926880,761.043396 549.646301,769.176941 549.167114,777.509583 
	C548.690613,785.796692 548.965210,794.159302 549.348450,802.506958 
	C549.776489,811.830139 549.885803,821.172729 550.467590,830.502014 
	C551.521240,847.400269 553.043762,864.246948 555.518982,880.997192 
	C556.709106,889.050903 557.852051,897.121338 559.999329,905.000183 
	C561.100586,909.040833 559.562195,912.934326 558.330566,916.440491 
	C554.991150,925.947327 550.833313,935.166687 547.000000,944.500000 
"/>
<path fill="none" opacity="1.000000" stroke="currentColor" stroke-linecap="round" stroke-linejoin="round" stroke-width="4.000000"
	d="
M685.500000,631.500000 
	C687.157043,640.455444 684.970703,649.241455 683.871094,657.983765 
	C680.390259,685.657776 672.542419,712.202637 662.025146,738.010254 
	C648.733643,770.625305 632.125671,801.439636 613.100220,831.064392 
	C601.227722,849.551392 590.350708,868.677185 578.984070,887.490417 
	C576.929321,890.891296 574.666687,894.166687 572.500000,897.500000 
"/>
<path fill="none" opacity="1.000000" stroke="currentColor" stroke-linecap="round" stroke-linejoin="round" stroke-width="4.000000"
	d="
M693.000000,542.500000 
	C689.418945,542.940918 687.956726,539.940247 686.040771,537.960571 
	C674.790649,526.336487 661.642517,517.673401 646.505554,511.985199 
	C642.968079,510.655853 639.928528,510.230682 635.923828,511.806488 
	C620.724304,517.787415 607.425781,526.442261 595.472046,537.469666 
	C579.364868,552.328674 566.788330,569.838745 557.646667,589.567993 
	C548.318542,609.699646 541.874573,630.835083 538.906677,652.987488 
	C537.124207,666.292053 535.606018,679.586365 536.052429,692.998230 
	C536.725098,713.204346 540.008179,733.033630 545.427368,752.520203 
	C545.837646,753.995483 546.536560,755.002930 547.500000,756.000000 
"/>
<path fill="none" opacity="1.000000" stroke="currentColor" stroke-linecap="round" stroke-linejoin="round" stroke-width="6.000000"
	d="
M22.000000,393.500000 
	C16.220078,393.889893 10.130535,399.800537 8.532595,407.007233 
	C5.794932,419.354004 4.801562,431.951782 3.508986,444.500916 
	C3.079748,448.668213 3.083412,453.278809 5.662207,456.364441 
	C10.076884,461.646820 8.752136,467.105164 7.400246,472.474884 
	C4.690352,483.238586 7.226941,492.240143 14.987864,500.012115 
	C22.729153,507.764465 31.599112,513.992920 41.008018,519.486267 
	C58.288002,529.575195 76.148598,538.488647 94.472298,546.562866 
	C131.236313,562.762695 169.019714,576.053284 207.463821,587.620239 
	C214.447662,589.721558 221.571533,591.249634 228.500000,593.500000 
"/>
<path fill="none" opacity="1.000000" stroke="currentColor" stroke-linecap="round" stroke-linejoin="round" stroke-width="5.000000"
	d="
M557.500000,79.500000 
	C548.142517,84.601105 538.035339,88.084641 527.505859,87.790627 
	C509.667542,87.292519 493.458344,81.607269 481.570923,67.440475 
	C472.875458,57.077675 464.980591,46.047176 456.453430,35.537796 
	C449.627472,27.125122 441.049896,21.337769 430.540680,17.876465 
	C408.819305,10.722341 380.288940,26.732937 379.980530,50.999752 
	C379.965637,52.168346 379.666656,53.333332 379.500000,54.500000 
"/>
<path fill="none" opacity="1.000000" stroke="currentColor" stroke-linecap="round" stroke-linejoin="round" stroke-width="6.000000"
	d="
M305.000000,238.500000 
	C300.933624,237.517639 297.869995,240.468643 294.589569,241.732483 
	C285.466370,245.247437 276.339752,248.009872 266.503540,247.439224 
	C262.917542,247.231171 262.043854,249.908218 260.504395,252.003220 
	C248.996323,267.663971 237.447205,283.294891 226.011429,299.008331 
	C204.997162,327.883118 185.853821,358.016876 166.609238,388.069946 
	C162.155045,395.025818 158.994751,402.790741 154.117538,409.584381 
	C152.814102,411.399994 152.602295,414.243439 151.784836,416.419159 
	C149.957092,421.283813 146.350342,425.411499 141.460205,427.402222 
	C131.063766,431.634460 120.240654,434.246155 109.022346,435.675415 
	C101.473885,436.637054 94.002182,436.335541 86.499352,436.461060 
	C69.454834,436.746246 53.252872,432.462891 37.544510,426.384949 
	C31.034697,423.866180 24.599083,420.772186 19.956045,415.035583 
	C18.218687,412.889038 16.839767,410.687042 16.250000,408.000000 
"/>
<path fill="none" opacity="1.000000" stroke="currentColor" stroke-linecap="round" stroke-linejoin="round" stroke-width="5.000000"
	d="
M568.500000,75.500000 
	C551.866150,96.949722 529.276794,105.096916 503.008209,103.829712 
	C492.485870,103.322105 482.607574,99.250313 474.043518,92.940926 
	C464.497681,85.908188 456.825775,77.102386 450.416260,67.053406 
	C444.916412,58.430607 439.544373,49.718716 432.077698,42.420509 
	C419.685364,30.307850 403.118622,34.667477 395.905579,49.955456 
	C395.082031,51.700977 396.325165,52.833332 396.000000,54.250000 
"/>
<path fill="none" opacity="1.000000" stroke="currentColor" stroke-linecap="round" stroke-linejoin="round" stroke-width="4.000000"
	d="
M433.500000,547.000000 
	C438.818604,555.953613 446.515106,563.053711 452.535858,571.474365 
	C461.900238,584.571350 471.468597,597.523193 481.023865,610.482422 
	C483.193420,613.424805 483.309753,615.377197 480.628143,618.606384 
	C459.429321,644.134460 439.811523,670.898499 420.047455,697.535217 
	C402.488007,721.200745 385.293549,745.137939 368.022308,769.016113 
	C362.251678,776.994263 357.533722,785.568237 354.486450,794.995605 
	C353.726501,797.346741 352.868317,799.690002 350.500000,801.000000 
"/>
<path fill="none" opacity="1.000000" stroke="currentColor" stroke-linecap="round" stroke-linejoin="round" stroke-width="4.000000"
	d="
M370.500000,121.000000 
	C369.796234,126.477280 368.109253,131.642715 365.492554,136.495987 
	C363.212860,140.724228 362.819397,145.513596 361.625793,150.033218 
	C359.714813,157.269165 355.823273,162.964066 350.543457,168.045151 
	C347.504761,170.969437 343.909821,173.314117 340.078430,171.801331 
	C335.463562,169.979202 334.252045,165.055847 334.595734,160.507233 
	C335.495972,148.593231 338.318329,137.227783 344.898468,126.935097 
	C347.069061,123.539894 349.606567,121.031990 352.950287,118.921257 
	C355.643036,117.221458 358.217346,117.001053 360.990753,118.025063 
	C364.720276,119.402115 368.547333,120.186523 372.497742,119.960526 
	C375.698395,119.777435 378.305298,121.505226 380.952057,122.614410 
	C403.932007,132.244537 426.664124,142.443939 448.995209,153.509644 
	C469.300293,163.571365 489.806091,173.284637 509.374664,184.714600 
	C513.972961,187.400436 518.493896,189.187180 523.484131,190.557785 
	C535.719727,193.918396 539.885132,204.672501 539.430969,213.996643 
	C538.916016,224.567963 533.777222,233.234100 527.585266,241.563385 
	C521.410645,249.869415 513.202454,255.978012 504.781128,261.143127 
	C497.876404,265.378052 489.229126,267.793121 480.508789,265.467102 
	C476.865753,264.495331 473.369843,263.100342 469.502045,262.947906 
	C465.216736,262.779053 462.477692,264.429932 460.967865,268.488037 
	C459.274323,273.040039 457.226562,277.459930 455.519989,282.007507 
	C450.398071,295.656372 440.784058,303.891266 426.512634,307.056976 
	C415.416443,309.518341 404.347961,311.869507 393.011200,313.103058 
	C381.854614,314.317047 370.647522,315.058838 359.536621,316.322205 
	C350.774841,317.318420 342.140686,317.443817 333.509918,316.854797 
	C324.627869,316.248596 315.781738,315.388367 307.417694,311.162933 
	C298.254028,306.533630 295.864014,299.415497 299.577576,290.532440 
	C303.431549,281.313507 305.631927,272.032166 304.098572,261.984955 
	C303.777740,259.882751 303.463867,258.094360 302.021759,256.480560 
	C299.665131,253.843292 299.227264,250.976822 301.500000,248.000000 
"/>
<path fill="none" opacity="1.000000" stroke="currentColor" stroke-linecap="round" stroke-linejoin="round" stroke-width="5.000000"
	d="
M580.000000,392.500000 
	C576.563293,395.574982 578.095276,399.845184 577.615540,403.515106 
	C575.247192,421.632568 570.357422,439.114990 564.997375,456.499207 
	C556.474976,484.139832 545.555664,510.912567 535.569702,538.025635 
	C529.159180,555.430847 524.085876,573.267883 520.458984,591.491821 
	C520.069397,593.449158 520.068848,595.728271 518.000000,597.000000 
"/>
<path fill="none" opacity="1.000000" stroke="currentColor" stroke-linecap="round" stroke-linejoin="round" stroke-width="4.000000"
	d="
M178.500000,421.500000 
	C179.844879,423.666656 178.464264,425.836884 178.442871,427.999420 
	C178.282532,444.205597 178.231415,460.434387 180.594330,476.486115 
	C182.885834,492.052704 187.004181,507.221527 192.484253,522.005859 
	C198.579453,538.449707 206.238174,554.109802 215.472397,569.017090 
	C217.256058,571.896606 219.460373,574.323242 222.000000,576.500000 
"/>
<path fill="none" opacity="1.000000" stroke="currentColor" stroke-linecap="round" stroke-linejoin="round" stroke-width="4.000000"
	d="
M380.500000,404.000000 
	C383.238464,406.918976 382.668365,410.575745 382.442810,413.996216 
	C381.906189,422.134583 384.533417,426.584167 391.987213,430.027710 
	C398.993988,433.264740 406.407104,434.485474 414.000183,434.997437 
	C438.999695,436.683075 462.764099,431.739563 485.485779,421.468536 
	C492.410858,418.338165 499.270905,415.023407 505.929321,411.371155 
	C507.671753,410.415405 509.187378,410.013428 511.000000,410.000000 
"/>
<path fill="none" opacity="1.000000" stroke="currentColor" stroke-linecap="round" stroke-linejoin="round" stroke-width="4.000000"
	d="
M588.500000,497.500000 
	C583.166626,505.833313 577.551453,514.001465 572.552795,522.530945 
	C557.498108,548.219666 545.435486,575.240845 537.533752,604.009277 
	C534.692017,614.355591 532.142822,624.788757 531.000000,635.500000 
"/>
<path fill="none" opacity="1.000000" stroke="currentColor" stroke-linecap="round" stroke-linejoin="round" stroke-width="4.000000"
	d="
M363.000000,424.500000 
	C367.136139,429.267853 369.649384,435.245026 374.477783,439.525085 
	C382.102600,446.283936 391.427277,449.277740 401.015747,451.429901 
	C414.060669,454.357880 427.339294,454.020599 440.488892,452.409332 
	C456.900757,450.398285 472.653290,445.552979 487.939972,439.351990 
	C489.928711,438.545258 491.629456,438.628601 493.500000,438.500000 
"/>
<path fill="none" opacity="1.000000" stroke="currentColor" stroke-linecap="round" stroke-linejoin="round" stroke-width="4.000000"
	d="
M697.000000,885.500000 
	C674.210754,902.843811 648.451721,912.407837 620.001343,915.014771 
	C604.485474,916.436584 589.633972,914.149597 575.500000,907.500000 
"/>
<path fill="none" opacity="1.000000" stroke="currentColor" stroke-linecap="round" stroke-linejoin="round" stroke-width="5.000000"
	d="
M333.000000,119.500000 
	C332.516846,112.543121 336.373718,107.063828 339.579041,101.545914 
	C348.056732,86.951576 358.371399,73.690651 371.637573,63.173531 
	C375.579163,60.048698 381.067108,58.699402 386.019684,57.059395 
	C398.242981,53.011723 410.689301,53.726826 422.983276,56.572220 
	C435.070862,59.369843 443.330017,67.475868 450.013428,77.491035 
	C456.224792,86.798851 462.804291,95.918121 470.600433,103.901917 
	C481.457092,115.019844 493.636993,124.418030 509.500000,127.500000 
"/>
<path fill="none" opacity="1.000000" stroke="currentColor" stroke-linecap="round" stroke-linejoin="round" stroke-width="5.000000"
	d="
M360.000000,372.500000 
	C358.139984,370.671143 355.748718,370.766083 353.504883,371.039978 
	C338.346222,372.890594 323.430084,376.034668 309.032593,381.092743 
	C297.841003,385.024536 287.072845,390.064575 276.478607,395.457977 
	C268.376953,399.582428 259.663025,402.591980 252.072998,407.610413 
	C246.168350,411.514465 240.614807,416.154175 238.500000,423.500000 
"/>
<path fill="none" opacity="1.000000" stroke="currentColor" stroke-linecap="round" stroke-linejoin="round" stroke-width="4.000000"
	d="
M686.500000,850.500000 
	C685.963196,855.537231 681.548767,857.755371 678.385925,860.361572 
	C661.337830,874.409180 642.427734,884.814697 620.540100,889.680481 
	C611.557556,891.677429 602.628479,893.060364 593.499023,893.478394 
	C590.505310,893.615479 587.500000,893.500000 584.500000,893.500000 
"/>
<path fill="none" opacity="1.000000" stroke="currentColor" stroke-linecap="round" stroke-linejoin="round" stroke-width="4.000000"
	d="
M141.000000,470.500000 
	C142.093719,472.886200 141.490906,474.927216 140.028625,477.019989 
	C135.411896,483.627472 129.683563,489.060028 122.992119,493.488098 
	C117.363762,497.212646 111.757652,500.984528 105.977585,504.462738 
	C98.298759,509.083588 96.113899,516.146912 100.977432,526.011108 
	C105.079826,534.331604 112.441635,539.089966 120.047844,543.415894 
	C125.281212,546.392334 130.430008,549.753967 136.500000,551.000000 
"/>
<path fill="none" opacity="1.000000" stroke="currentColor" stroke-linecap="round" stroke-linejoin="round" stroke-width="4.000000"
	d="
M596.500000,142.000000 
	C601.443481,147.197128 602.854736,154.080811 604.914246,160.527405 
	C610.915283,179.311783 611.415222,198.365799 606.486694,217.496567 
	C604.283264,226.049637 599.877869,233.665314 596.000000,241.500000 
"/>
<path fill="none" opacity="1.000000" stroke="currentColor" stroke-linecap="round" stroke-linejoin="round" stroke-width="5.000000"
	d="
M374.500000,365.000000 
	C369.825195,367.332306 364.240234,369.495117 361.116943,372.842377 
	C355.610199,378.744080 349.334991,383.606049 343.444000,388.938141 
	C327.775421,403.120178 311.998779,417.194031 295.920715,430.907013 
	C289.244598,436.601044 283.493042,443.175934 276.966827,448.962585 
	C272.008392,453.359070 270.606934,460.278259 265.500000,464.500000 
"/>
<path fill="none" opacity="1.000000" stroke="currentColor" stroke-linecap="round" stroke-linejoin="round" stroke-width="4.000000"
	d="
M381.000000,133.500000 
	C376.417511,144.220871 371.860474,154.957275 364.995117,164.496490 
	C361.428711,169.451874 357.501068,174.108490 351.985291,176.971649 
	C341.546875,182.390106 329.286469,176.860199 328.588684,163.495377 
	C328.407928,160.033325 327.885101,156.495941 329.351013,152.938614 
	C330.145386,151.010818 329.811768,148.363953 328.000000,146.500000 
"/>
<path fill="none" opacity="1.000000" stroke="currentColor" stroke-linecap="round" stroke-linejoin="round" stroke-width="5.000000"
	d="
M519.500000,602.500000 
	C518.980042,599.957764 519.265137,597.170288 515.536621,596.336182 
	C513.982849,595.988586 512.824890,593.841614 511.501312,592.498718 
	C497.309937,578.099976 482.669708,564.200073 466.499207,552.001099 
	C460.921814,547.793457 455.018555,544.243652 447.999512,543.002686 
	C442.818115,542.086609 437.823029,541.915649 433.962433,546.468140 
	C433.753265,546.714783 433.000000,546.500000 432.500000,546.500000 
"/>
<path fill="none" opacity="1.000000" stroke="currentColor" stroke-linecap="round" stroke-linejoin="round" stroke-width="3.000000"
	d="
M640.000000,509.500000 
	C638.048645,502.166138 633.449036,496.189575 629.394653,490.069824 
	C617.906799,472.729767 604.503540,456.852509 590.458801,441.537811 
	C586.562805,437.289551 582.129456,433.537659 578.023438,429.476288 
	C576.844727,428.310364 575.374146,428.391235 574.000000,428.000000 
"/>
<path fill="none" opacity="1.000000" stroke="currentColor" stroke-linecap="round" stroke-linejoin="round" stroke-width="4.000000"
	d="
M186.500000,422.500000 
	C187.891861,429.730560 188.978683,437.006897 191.461578,444.013611 
	C199.214493,465.892151 210.570557,485.306732 229.011230,499.985901 
	C230.186142,500.921143 230.589142,502.187164 231.000000,503.500000 
"/>
<path fill="none" opacity="1.000000" stroke="currentColor" stroke-linecap="round" stroke-linejoin="round" stroke-width="4.000000"
	d="
M507.500000,247.500000 
	C516.018555,240.743408 523.932434,233.394806 527.952820,222.981781 
	C533.259888,209.236298 526.306152,200.439636 512.994080,201.419601 
	C505.975250,201.936325 500.728241,205.424820 496.067444,210.067719 
	C494.231384,211.896713 492.590088,213.923416 490.500000,215.500000 
"/>
<path fill="none" opacity="1.000000" stroke="currentColor" stroke-linecap="round" stroke-linejoin="round" stroke-width="5.000000"
	d="
M10.000000,465.000000 
	C15.273499,466.839752 18.714941,471.373016 23.462877,474.065460 
	C40.720463,483.851807 59.111080,489.266541 78.999466,489.539185 
	C82.528328,489.587585 86.283478,488.515656 89.500000,491.000000 
"/>
<path fill="none" opacity="1.000000" stroke="currentColor" stroke-linecap="round" stroke-linejoin="round" stroke-width="4.000000"
	d="
M370.000000,128.500000 
	C377.565186,129.937027 384.067139,134.047653 390.957825,137.095352 
	C411.076508,145.993668 431.064728,155.195435 450.979553,164.543564 
	C466.969513,172.049301 483.375519,178.841553 498.368683,188.210159 
	C504.022736,191.743164 508.385651,191.763367 513.500000,188.500000 
"/>
<path fill="none" opacity="1.000000" stroke="currentColor" stroke-linecap="round" stroke-linejoin="round" stroke-width="5.000000"
	d="
M441.000000,82.500000 
	C439.188751,95.694168 442.354218,108.205200 446.556702,120.480591 
	C450.232605,131.217926 454.795563,141.668228 456.462952,153.005447 
	C456.579376,153.797134 456.166656,154.666656 456.000000,155.500000 
"/>
<path fill="none" opacity="1.000000" stroke="currentColor" stroke-linecap="round" stroke-linejoin="round" stroke-width="4.000000"
	d="
M362.500000,231.000000 
	C358.557159,238.965714 351.447937,243.103287 343.465759,245.380005 
	C331.468872,248.801819 319.204010,248.558395 306.192627,246.071289 
	C307.687256,242.402802 304.505707,239.282669 305.837433,235.443604 
	C306.196960,234.407227 305.538513,232.109695 303.502594,231.491486 
	C300.383911,230.544571 298.770447,227.861969 297.044739,225.467743 
	C294.630798,222.118591 294.911957,218.105240 297.513550,215.011398 
	C299.106964,213.116455 300.986450,211.448120 302.466003,209.474518 
	C305.014160,206.075424 304.492096,203.716370 301.009460,200.987946 
	C299.160309,199.539246 297.026794,198.614517 295.039581,197.433411 
	C290.607605,194.799240 290.293823,189.853088 289.000000,185.500000 
"/>
<path fill="none" opacity="1.000000" stroke="currentColor" stroke-linecap="round" stroke-linejoin="round" stroke-width="4.000000"
	d="
M163.500000,452.500000 
	C164.842072,455.072693 163.397156,457.284943 162.478943,459.491241 
	C151.770126,485.222656 156.507263,509.033844 171.536819,531.475342 
	C176.375687,538.700562 182.598465,544.710510 189.500000,550.000000 
"/>
<path fill="none" opacity="1.000000" stroke="currentColor" stroke-linecap="round" stroke-linejoin="round" stroke-width="5.000000"
	d="
M505.000000,262.500000 
	C505.999847,264.602570 505.535339,266.847198 505.455353,268.998352 
	C505.111938,278.234589 507.534149,286.902863 510.483093,295.505798 
	C513.239563,303.547089 515.949951,311.603943 517.552429,319.989990 
	C517.852417,321.560028 518.833313,323.000000 519.500000,324.500000 
"/>
<path fill="none" opacity="1.000000" stroke="currentColor" stroke-linecap="round" stroke-linejoin="round" stroke-width="5.000000"
	d="
M363.500000,230.500000 
	C343.475739,225.448669 323.018982,223.500977 302.500000,222.000000 
"/>
<path fill="none" opacity="1.000000" stroke="currentColor" stroke-linecap="round" stroke-linejoin="round" stroke-width="5.000000"
	d="
M152.500000,418.500000 
	C160.023911,422.900818 160.306335,425.154602 157.083252,436.523590 
	C153.715607,448.402496 148.746613,459.652466 140.755798,468.786346 
	C134.263474,476.207458 125.246475,481.139893 115.496124,483.986725 
	C107.848763,486.219513 100.167526,488.336426 92.496902,490.488953 
	C92.187897,490.575653 91.707802,490.355713 91.518066,490.520752 
	C83.460526,497.531158 72.866989,496.603119 63.514446,499.545898 
	C60.753983,500.414459 58.101753,501.706238 55.514156,503.027710 
	C50.818058,505.425995 50.706753,508.859741 54.986572,512.018188 
	C58.486210,514.600891 62.415142,514.823669 66.500000,514.500000 
"/>
<path fill="none" opacity="1.000000" stroke="currentColor" stroke-linecap="round" stroke-linejoin="round" stroke-width="5.000000"
	d="
M250.500000,407.000000 
	C245.097565,401.795959 238.152512,402.003204 231.502045,402.118408 
	C224.794510,402.234619 218.694290,404.986023 212.999100,408.498535 
	C209.362656,410.741394 205.639389,412.878357 201.488022,413.953766 
	C197.705780,414.933594 193.852158,415.322906 190.499344,412.500763 
	C185.335052,408.153809 180.109085,410.356995 175.020676,412.548004 
	C171.743896,413.958954 168.666656,415.833313 165.499985,417.499969 
"/>
<path fill="none" opacity="1.000000" stroke="currentColor" stroke-linecap="round" stroke-linejoin="round" stroke-width="5.000000"
	d="
M324.500000,476.000000 
	C321.250946,474.549438 321.437988,471.039185 319.948578,468.530518 
	C311.251831,453.882172 300.996979,450.703918 282.493591,455.475189 
	C278.810638,456.424896 275.606720,459.113464 271.500000,458.500000 
"/>
<path fill="none" opacity="1.000000" stroke="currentColor" stroke-linecap="round" stroke-linejoin="round" stroke-width="4.000000"
	d="
M293.000000,178.500000 
	C299.670685,174.172867 306.912628,170.706070 312.964294,165.458817 
	C314.372711,164.237640 315.996368,162.652573 316.382874,160.973038 
	C317.888611,154.429306 322.530762,149.680725 325.442932,143.970901 
	C326.596375,141.709396 328.380981,139.063400 326.912109,136.551392 
	C324.328827,132.133591 324.656616,127.169182 323.548859,122.697433 
	C319.705750,120.677048 315.697327,119.287727 311.504730,119.570061 
	C303.038086,120.140228 299.145538,126.387199 295.448059,132.970825 
	C291.922729,139.247955 291.643158,146.190598 290.453278,152.991821 
	C289.376740,159.145065 288.432007,165.225342 289.403259,171.514938 
	C289.684906,173.338806 290.151794,174.964737 291.019501,176.488907 
	C293.256378,180.418106 291.864502,183.876282 287.499817,184.999252 
	C279.067230,187.168839 270.429626,188.613632 262.492065,192.483749 
	C252.297516,197.454300 243.418518,203.805054 238.500000,214.500000 
"/>
<path fill="none" opacity="1.000000" stroke="currentColor" stroke-linecap="round" stroke-linejoin="round" stroke-width="4.000000"
	d="
M316.000000,149.500000 
	C315.292542,144.955261 317.222076,140.812393 317.851746,136.478455 
	C318.316681,133.278351 319.309082,129.115067 315.451874,127.091782 
	C311.929291,125.244041 308.443024,126.025734 305.468201,128.967834 
	C303.529846,130.884857 302.089813,133.050568 301.000885,135.500397 
	C297.037964,144.416275 295.057648,153.790344 294.492401,163.499557 
	C294.251862,167.631058 295.296783,171.322235 298.000000,174.500000 
"/>
<path fill="none" opacity="1.000000" stroke="currentColor" stroke-linecap="round" stroke-linejoin="round" stroke-width="5.000000"
	d="
M456.500000,168.500000 
	C455.461548,172.295425 455.807739,176.200806 456.080261,179.994232 
	C456.924469,191.744843 453.676025,202.835648 450.806519,213.950043 
	C450.361206,215.674881 450.300262,217.326721 450.000000,219.000000 
"/>
<path fill="none" opacity="1.000000" stroke="currentColor" stroke-linecap="round" stroke-linejoin="round" stroke-width="4.000000"
	d="
M306.000000,395.000000 
	C295.281403,406.750671 284.533447,418.457092 275.925385,431.952393 
	C273.450562,435.832306 271.291016,439.796509 269.500000,444.000000 
"/>
<path fill="none" opacity="1.000000" stroke="currentColor" stroke-linecap="round" stroke-linejoin="round" stroke-width="3.000000"
	d="
M490.000000,218.000000 
	C494.973389,227.722031 494.831207,232.429092 488.944763,239.956802 
	C482.454987,248.256073 472.195892,245.729630 468.500000,236.500000 
"/>
<path fill="none" opacity="1.000000" stroke="currentColor" stroke-linecap="round" stroke-linejoin="round" stroke-width="4.000000"
	d="
M502.000000,191.500000 
	C500.328491,193.620773 497.868835,194.545334 495.524750,193.908829 
	C487.609528,191.759674 481.771576,196.176895 476.079498,200.114914 
	C469.569580,204.618774 463.678680,210.014923 457.493347,214.991760 
	C455.381317,216.691132 454.045837,219.496735 450.485260,219.152390 
	C449.420074,219.049362 448.650085,220.969086 449.000000,222.500000 
"/>
<path fill="none" opacity="1.000000" stroke="currentColor" stroke-linecap="round" stroke-linejoin="round" stroke-width="5.000000"
	d="
M55.500000,384.500000 
	C55.221878,386.585693 54.374466,388.290375 53.072193,390.053314 
	C46.314915,399.200928 39.209129,408.116241 33.503384,418.001953 
	C32.645721,419.487915 31.833334,421.000000 31.000000,422.500000 
"/>
<path fill="none" opacity="1.000000" stroke="currentColor" stroke-linecap="round" stroke-linejoin="round" stroke-width="4.000000"
	d="
M552.500000,934.000000 
	C563.017944,940.094910 574.423706,942.638489 586.500000,942.500000 
"/>
<path fill="none" opacity="1.000000" stroke="currentColor" stroke-linecap="round" stroke-linejoin="round" stroke-width="4.000000"
	d="
M336.500000,193.000000 
	C335.028931,199.026245 330.493286,201.342728 324.812317,202.807251 
	C320.524170,198.636963 316.699432,193.332230 309.500000,195.500000 
"/>
<path fill="none" opacity="1.000000" stroke="currentColor" stroke-linecap="round" stroke-linejoin="round" stroke-width="3.000000"
	d="
M288.000000,162.000000 
	C277.232208,161.735107 267.836517,157.209381 258.500000,152.500000 
"/>
<path fill="none" opacity="1.000000" stroke="currentColor" stroke-linecap="round" stroke-linejoin="round" stroke-width="3.000000"
	d="
M498.500000,213.500000 
	C500.500000,214.500000 502.745331,215.192734 504.454346,216.557159 
	C509.752899,220.787384 509.849548,228.409668 504.941193,234.955917 
	C503.841400,236.422668 502.000000,237.333344 500.500000,238.500000 
"/>
<path fill="none" opacity="1.000000" stroke="currentColor" stroke-linecap="round" stroke-linejoin="round" stroke-width="3.000000"
	d="
M393.500000,115.000000 
	C393.399323,114.316841 393.605103,113.677925 393.035004,112.971741 
	C389.170807,108.184937 377.486023,105.927338 371.910339,109.050224 
	C372.292328,111.091270 373.584412,112.582680 374.592010,113.600197 
	C386.224670,113.456413 396.776215,115.739960 406.500000,121.500000 
"/>
<path fill="none" opacity="1.000000" stroke="currentColor" stroke-linecap="round" stroke-linejoin="round" stroke-width="2.000000"
	d="
M331.500000,260.500000 
	C325.502136,260.743988 319.558807,262.374115 313.493927,261.027405 
	C310.529083,260.369080 307.500000,260.000000 304.500000,259.500000 
"/>
<path fill="none" opacity="1.000000" stroke="currentColor" stroke-linecap="round" stroke-linejoin="round" stroke-width="4.000000"
	d="
M312.500000,114.500000 
	C311.572784,112.522301 309.583893,111.708427 307.978394,110.529434 
	C299.577148,104.359985 291.677887,106.063988 286.448242,114.969612 
	C286.017914,115.702438 285.996613,116.319939 286.016846,116.999496 
	C286.150970,121.500465 286.123718,126.020737 286.566223,130.493454 
	C286.921082,134.079910 288.635925,136.991257 292.500000,138.000000 
"/>
<path fill="none" opacity="1.000000" stroke="currentColor" stroke-linecap="round" stroke-linejoin="round" stroke-width="5.000000"
	d="
M334.000000,109.500000 
	C328.382080,104.987419 322.993805,104.788773 317.516113,109.020859 
	C315.746735,110.387886 314.166656,112.000000 312.500000,113.500000 
"/>
<path fill="none" opacity="1.000000" stroke="currentColor" stroke-linecap="round" stroke-linejoin="round" stroke-width="4.000000"
	d="
M338.500000,121.500000 
	C337.062195,128.248444 334.654724,134.308731 327.500000,137.000000 
"/>
<path fill="none" opacity="1.000000" stroke="currentColor" stroke-linecap="round" stroke-linejoin="round" stroke-width="5.000000"
	d="
M370.000000,120.000000 
	C367.909058,113.439156 364.112335,111.044624 356.002045,111.534012 
	C350.959564,111.838280 346.375275,113.282227 342.961761,117.468811 
	C340.814056,120.102829 338.448334,121.189354 334.429413,120.330093 
	C331.319946,119.665268 326.958679,119.393105 324.000000,122.500000 
"/>
<path fill="none" opacity="1.000000" stroke="currentColor" stroke-linecap="round" stroke-linejoin="round" stroke-width="4.000000"
	d="
M266.000000,121.000000 
	C268.000000,126.166664 269.944061,131.355927 272.019623,136.492081 
	C273.408020,139.927887 280.654083,143.012726 284.017609,142.062271 
	C286.512115,141.357376 286.559967,138.905167 288.000000,137.500000 
"/>
<path fill="none" opacity="1.000000" stroke="currentColor" stroke-linecap="round" stroke-linejoin="round" stroke-width="4.000000"
	d="
M160.500000,402.000000 
	C166.019211,404.591461 172.302399,405.936432 176.000000,411.500000 
"/>
<path fill="none" opacity="1.000000" stroke="currentColor" stroke-linecap="round" stroke-linejoin="round" stroke-width="3.000000"
	d="
M256.500000,138.500000 
	C261.666656,141.612152 266.833344,142.076385 272.000000,138.500000 
"/>
</svg>
